#!OML:ASF X:\2005_08_12_Meinard\c3d\meinard.ASF
:FULLY-SPECIFIED
:DEGREES
1203
root -2.90776 17.2187 -5.58649 -27.6521 -64.4578 13.6584
lowerback 31.9194 -1.53246 -0.949615
upperback 2.31992 -3.46385 -5.35002
thorax -14.3922 -1.76606 -3.85152
lowerneck 2.68948 -17.0906 5.47101
upperneck -18.4243 -21.892 9.27024
head -5.61117 -11.7731 3.23646
rclavicle -4.57702e-014 -1.27222e-014
rhumerus 42.3194 6.566 10.6054
rradius 89.9298
rwrist 25.6997
rhand -39.5973 4.0888
rfingers 7.12502
rthumb -12.5796 -25.5125
lclavicle -4.57702e-014 -1.27222e-014
lhumerus 157.413 146.488 228.295
lradius 14.3367
lwrist -46.4694
lhand -12.3511 -19.4596
lfingers 7.12502
lthumb 13.7187 10.0682
rfemur 3.98103 -7.52454 15.3439
rtibia 34.8985
rfoot -17.462 5.96685
rtoes -2.86356
lfemur 14.6922 -6.6283 -8.65901
ltibia 26.6876
lfoot 12.935 15.4948
ltoes -32.0156
1204
root -2.91719 17.2219 -5.5896 -27.5016 -64.289 13.548
lowerback 31.8874 -1.56949 -0.961926
upperback 2.3001 -3.51848 -5.3734
thorax -14.4069 -1.79007 -3.84847
lowerneck 2.66222 -17.1046 5.46871
upperneck -18.4826 -21.9095 9.30935
head -5.62015 -11.786 3.24962
rclavicle 6.63444e-014 3.4191e-014
rhumerus 40.5072 4.49789 8.77493
rradius 87.3936
rwrist 24.5415
rhand -38.6853 3.86588
rfingers 7.12502
rthumb -11.7002 -25.7874
lclavicle 6.63444e-014 3.4191e-014
lhumerus 157.087 145.937 227.666
lradius 14.0995
lwrist -47.3024
lhand -12.3732 -19.1863
lfingers 7.12502
lthumb 13.6973 10.3429
rfemur 4.03412 -7.29293 15.3871
rtibia 34.8073
rfoot -17.3937 6.08669
rtoes -3.33053
lfemur 14.6338 -6.5991 -8.59056
ltibia 26.617
lfoot 12.9858 15.3295
ltoes -32.1225
1205
root -2.92646 17.224 -5.59156 -27.3229 -64.1242 13.4327
lowerback 31.818 -1.60934 -0.964936
upperback 2.28419 -3.57188 -5.39836
thorax -14.4015 -1.81431 -3.85344
lowerneck 2.59609 -17.1175 5.44073
upperneck -18.4764 -21.9308 9.34937
head -5.59896 -11.7976 3.25686
rclavicle -6.43068e-014 -1.51076e-014
rhumerus 38.8056 2.29209 7.07793
rradius 84.6596
rwrist 23.1746
rhand -37.5351 3.92933
rfingers 7.12502
rthumb -10.5909 -25.7838
lclavicle -6.43068e-014 -1.51076e-014
lhumerus 156.749 145.29 226.969
lradius 13.8341
lwrist -48.2325
lhand -12.439 -18.8072
lfingers 7.12502
lthumb 13.6339 10.7263
rfemur 4.0464 -7.16802 15.4087
rtibia 34.7445
rfoot -17.3213 6.24592
rtoes -3.83686
lfemur 14.5514 -6.60732 -8.52917
ltibia 26.5448
lfoot 13.0152 15.2401
ltoes -32.0248
1206
root -2.93519 17.2244 -5.59382 -27.1781 -63.9576 13.3444
lowerback 31.7689 -1.63917 -0.996055
upperback 2.2577 -3.62151 -5.41177
thorax -14.4139 -1.83454 -3.83174
lowerneck 2.60637 -17.1402 5.3515
upperneck -18.4877 -21.9574 9.42785
head -5.58382 -11.8115 3.28976
rclavicle -1.88845e-014 4.77083e-014
rhumerus 37.415 -0.000326522 5.61356
rradius 81.4587
rwrist 21.5969
rhand -36.2669 4.23618
rfingers 7.12502
rthumb -9.36738 -25.5357
lclavicle -1.88845e-014 4.77083e-014
lhumerus 156.383 144.715 226.255
lradius 13.5371
lwrist -49.0737
lhand -12.6303 -18.3533
lfingers 7.12502
lthumb 13.4496 11.1924
rfemur 4.04176 -7.16509 15.3931
rtibia 34.7231
rfoot -17.2792 6.46284
rtoes -4.21428
lfemur 14.4828 -6.59354 -8.46746
ltibia 26.4659
lfoot 13.0617 15.1361
ltoes -31.946
1207
root -2.94316 17.2235 -5.59463 -27.0164 -63.7834 13.2191
lowerback 31.7222 -1.67886 -0.992017
upperback 2.25743 -3.67267 -5.43545
thorax -14.4003 -1.85828 -3.8396
lowerneck 2.62085 -17.1593 5.27177
upperneck -18.5269 -21.9761 9.52482
head -5.57733 -11.8246 3.32884
rclavicle -1.29707e-014 1.19271e-014
rhumerus 36.266 -2.35046 4.34763
rradius 77.8095
rwrist 19.8134
rhand -34.99 4.62898
rfingers 7.12502
rthumb -8.13507 -25.1944
lclavicle -1.29707e-014 1.19271e-014
lhumerus 156.056 144.028 225.494
lradius 13.2106
lwrist -49.9771
lhand -12.8018 -17.8252
lfingers 7.12502
lthumb 13.2842 11.7314
rfemur 4.03981 -7.23378 15.3754
rtibia 34.7356
rfoot -17.2572 6.62094
rtoes -4.56958
lfemur 14.4271 -6.61223 -8.40361
ltibia 26.3706
lfoot 13.1099 15.0292
ltoes -31.8588
1208
root -2.95106 17.2228 -5.59642 -26.8292 -63.613 13.0801
lowerback 31.6901 -1.71353 -0.99489
upperback 2.22399 -3.71943 -5.44921
thorax -14.4299 -1.87878 -3.83462
lowerneck 2.71647 -17.1851 5.16592
upperneck -18.5713 -21.9961 9.63409
head -5.58101 -11.8377 3.38253
rclavicle 7.21091e-014 1.66979e-014
rhumerus 35.3014 -4.66491 3.2609
rradius 73.9731
rwrist 17.9199
rhand -33.6196 4.75764
rfingers 7.12502
rthumb -6.8124 -25.1128
lclavicle 7.21091e-014 1.66979e-014
lhumerus 155.636 143.19 224.615
lradius 12.8565
lwrist -51.0324
lhand -13.0284 -17.2378
lfingers 7.12502
lthumb 13.0658 12.333
rfemur 4.00844 -7.37289 15.3662
rtibia 34.7744
rfoot -17.2629 6.73822
rtoes -4.79595
lfemur 14.367 -6.64557 -8.32889
ltibia 26.2553
lfoot 13.1753 14.9351
ltoes -31.743
1209
root -2.95858 17.2236 -5.59713 -26.6872 -63.428 12.9957
lowerback 31.6413 -1.74889 -1.01613
upperback 2.21361 -3.77444 -5.47433
thorax -14.4259 -1.90268 -3.82884
lowerneck 2.75896 -17.2017 5.1008
upperneck -18.6285 -22.0065 9.73777
head -5.58585 -11.8488 3.42586
rclavicle 2.04748e-014 2.22639e-014
rhumerus 34.4995 -6.99473 2.28973
rradius 70.0005
rwrist 15.9857
rhand -32.1561 4.41779
rfingers 7.12502
rthumb -5.39942 -25.4934
lclavicle 2.04748e-014 2.22639e-014
lhumerus 155.143 141.869 223.526
lradius 12.4599
lwrist -52.5047
lhand -13.231 -16.7314
lfingers 7.12502
lthumb 12.8705 12.8517
rfemur 3.97751 -7.52068 15.3279
rtibia 34.7989
rfoot -17.2455 6.804
rtoes -4.87804
lfemur 14.3076 -6.68124 -8.28866
ltibia 26.1377
lfoot 13.2283 14.815
ltoes -31.6093
1210
root -2.96582 17.2253 -5.59768 -26.5299 -63.2556 12.8774
lowerback 31.6193 -1.77825 -1.0011
upperback 2.19827 -3.81173 -5.50823
thorax -14.4416 -1.92113 -3.85925
lowerneck 2.83381 -17.2386 5.03559
upperneck -18.6753 -22.0407 9.84854
head -5.59114 -11.8714 3.4747
rclavicle -9.59136e-015 -8.74653e-015
rhumerus 33.7821 -9.2404 1.52574
rradius 65.9674
rwrist 13.8839
rhand -30.7086 3.46712
rfingers 7.12502
rthumb -4.00178 -26.475
lclavicle -9.59136e-015 -8.74653e-015
lhumerus 154.458 140.005 222.148
lradius 12.0496
lwrist -54.5308
lhand -13.4709 -16.2569
lfingers 7.12502
lthumb 12.6393 13.3407
rfemur 3.97036 -7.71475 15.2964
rtibia 34.8054
rfoot -17.2653 6.86813
rtoes -5.1031
lfemur 14.2828 -6.75178 -8.23437
ltibia 26.014
lfoot 13.2258 14.7648
ltoes -31.2942
1211
root -2.97303 17.2312 -5.59851 -26.309 -63.0911 12.7092
lowerback 31.587 -1.81349 -0.972012
upperback 2.1761 -3.84945 -5.53211
thorax -14.4607 -1.94014 -3.88649
lowerneck 2.93722 -17.2692 4.98097
upperneck -18.7299 -22.0641 9.94835
head -5.60636 -11.889 3.52267
rclavicle -5.33737e-014 -3.97569e-014
rhumerus 33.2499 -11.4271 0.903344
rradius 61.7764
rwrist 11.768
rhand -29.3729 1.95612
rfingers 7.12502
rthumb -2.7118 -28.0064
lclavicle -5.33737e-014 -3.97569e-014
lhumerus 153.393 137.299 220.251
lradius 11.6152
lwrist -57.381
lhand -13.685 -15.9297
lfingers 7.12502
lthumb 12.4328 13.6805
rfemur 3.96453 -7.88779 15.3168
rtibia 34.759
rfoot -17.2413 6.84751
rtoes -5.14421
lfemur 14.2301 -6.83938 -8.15709
ltibia 25.8989
lfoot 13.2203 14.6948
ltoes -31.0554
1212
root -2.98038 17.2382 -5.59951 -26.109 -62.9252 12.5545
lowerback 31.5727 -1.83738 -0.947061
upperback 2.15381 -3.87511 -5.55742
thorax -14.4869 -1.95356 -3.91766
lowerneck 3.02536 -17.3029 4.91785
upperneck -18.7777 -22.0907 10.072
head -5.61291 -11.9092 3.57591
rclavicle 1.00386e-014 1.90833e-014
rhumerus 32.9613 -13.6398 0.321323
rradius 57.3636
rwrist 9.71273
rhand -28.1218 0.141854
rfingers 7.12502
rthumb -1.50352 -29.8326
lclavicle 1.00386e-014 1.90833e-014
lhumerus 152.028 134.203 217.97
lradius 11.1735
lwrist -60.6164
lhand -13.8748 -15.6602
lfingers 7.12502
lthumb 12.2498 13.9611
rfemur 3.99626 -8.09133 15.3199
rtibia 34.6569
rfoot -17.2332 6.81788
rtoes -5.16819
lfemur 14.1639 -6.89746 -8.07229
ltibia 25.8003
lfoot 13.233 14.5566
ltoes -30.952
1213
root -2.98741 17.2472 -5.60066 -25.9233 -62.7459 12.3927
lowerback 31.5881 -1.8631 -0.933204
upperback 2.12987 -3.90628 -5.57059
thorax -14.5264 -1.96808 -3.92654
lowerneck 3.14585 -17.339 4.8332
upperneck -18.8353 -22.1214 10.1798
head -5.62699 -11.9293 3.63128
rclavicle -5.47652e-014 -7.95139e-016
rhumerus 33.0219 -15.8997 -0.284798
rradius 52.6419
rwrist 7.82924
rhand -27.0709 -1.72155
rfingers 7.12502
rthumb -0.488558 -31.7007
lclavicle -5.47652e-014 -7.95139e-016
lhumerus 150.065 130.485 215.005
lradius 10.7185
lwrist -64.5122
lhand -14.0949 -15.4669
lfingers 7.12502
lthumb 12.0376 14.1669
rfemur 4.08815 -8.26657 15.3333
rtibia 34.4899
rfoot -17.2143 6.74872
rtoes -5.23707
lfemur 14.0924 -6.91147 -7.96667
ltibia 25.7141
lfoot 13.3144 14.3288
ltoes -30.9656
1214
root -2.99208 17.2592 -5.60161 -25.6753 -62.5576 12.1706
lowerback 31.6195 -1.90286 -0.873084
upperback 2.10739 -3.94189 -5.59579
thorax -14.5763 -1.98784 -3.9716
lowerneck 3.27327 -17.3755 4.78086
upperneck -18.9206 -22.1442 10.3264
head -5.65046 -11.9515 3.69656
rclavicle 8.80119e-014 -3.33958e-014
rhumerus 33.2679 -18.2082 -0.873118
rradius 47.6579
rwrist 6.24276
rhand -26.2596 -3.49092
rfingers 7.12502
rthumb 0.295059 -33.4705
lclavicle 8.80119e-014 -3.33958e-014
lhumerus 147.298 126.262 211.111
lradius 10.2811
lwrist -69.0273
lhand -14.2353 -15.2998
lfingers 7.12502
lthumb 11.9022 14.3418
rfemur 4.1898 -8.46571 15.3617
rtibia 34.2686
rfoot -17.1202 6.67719
rtoes -5.14276
lfemur 13.9887 -6.95213 -7.84567
ltibia 25.6297
lfoot 13.4289 14.0986
ltoes -30.9903
1215
root -2.9955 17.2718 -5.60238 -25.4514 -62.3657 11.9613
lowerback 31.6579 -1.93401 -0.816495
upperback 2.09801 -3.96805 -5.62368
thorax -14.6134 -2.00346 -4.02135
lowerneck 3.32846 -17.4208 4.80387
upperneck -18.953 -22.1908 10.3875
head -5.6639 -11.9811 3.72106
rclavicle -6.69407e-014 -8.11041e-014
rhumerus 33.5828 -20.5445 -1.35657
rradius 42.5877
rwrist 4.9339
rhand -25.5895 -5.06815
rfingers 7.12502
rthumb 0.942192 -35.0458
lclavicle -6.69407e-014 -8.11041e-014
lhumerus 148.212 126.549 211.867
lradius 9.80505
lwrist -68.2026
lhand -14.2745 -14.1201
lfingers 7.12502
lthumb 11.8644 15.5237
rfemur 4.33154 -8.62605 15.3929
rtibia 33.9845
rfoot -16.9924 6.57313
rtoes -4.9387
lfemur 13.8825 -6.97115 -7.72058
ltibia 25.5631
lfoot 13.5426 13.8493
ltoes -30.9798
1216
root -2.99877 17.2865 -5.60379 -25.183 -62.168 11.6894
lowerback 31.7413 -1.96513 -0.751632
upperback 2.06304 -3.98935 -5.62782
thorax -14.6977 -2.01593 -4.05077
lowerneck 3.44153 -17.4598 4.75668
upperneck -18.998 -22.2222 10.4973
head -5.67685 -12.0035 3.77174
rclavicle 4.02042e-014 -2.62396e-014
rhumerus 33.934 -22.8678 -1.80277
rradius 37.5996
rwrist 4.11344
rhand -24.9548 -6.5864
rfingers 7.12502
rthumb 1.55526 -36.5605
lclavicle 4.02042e-014 -2.62396e-014
lhumerus 149.073 126.879 212.601
lradius 9.31231
lwrist -67.2921
lhand -14.3232 -12.9582
lfingers 7.12502
lthumb 11.8175 16.6884
rfemur 4.515 -8.74498 15.4651
rtibia 33.6454
rfoot -16.8282 6.40826
rtoes -4.84437
lfemur 13.779 -7.03915 -7.58079
ltibia 25.5035
lfoot 13.6862 13.6265
ltoes -30.9625
